<svg width="17" height="17" viewBox="0 0 17 17" fill="none" xmlns="http://www.w3.org/2000/svg">
<path fill-rule="evenodd" clip-rule="evenodd" d="M8.33333 16.6667C3.73333 16.6667 0 12.9417 0 8.33333C0 3.73333 3.73333 0 8.33333 0C12.9417 0 16.6667 3.73333 16.6667 8.33333C16.6667 12.9417 12.9417 16.6667 8.33333 16.6667ZM10.9917 11.425C11.0917 11.4833 11.2 11.5167 11.3167 11.5167C11.525 11.5167 11.7333 11.4083 11.85 11.2083C12.025 10.9167 11.9333 10.5333 11.6333 10.35L8.66667 8.58333V4.73333C8.66667 4.38333 8.38333 4.10833 8.04167 4.10833C7.7 4.10833 7.41667 4.38333 7.41667 4.73333V8.94167C7.41667 9.15833 7.53333 9.35833 7.725 9.475L10.9917 11.425Z" fill="#AB94FF"/>
</svg>
